<?xml version="1.0" standalone="no"?>
<!DOCTYPE svg PUBLIC "-//W3C//DTD SVG 20010904//EN"
 "http://www.w3.org/TR/2001/REC-SVG-20010904/DTD/svg10.dtd">
<svg version="1.0" xmlns="http://www.w3.org/2000/svg"
 width="3125.000000pt" height="1875.000000pt" viewBox="0 0 3125.000000 1875.000000"
 preserveAspectRatio="xMidYMid meet">

<g transform="translate(0.000000,1875.000000) scale(0.100000,-0.100000)"
fill="#000000" stroke="none">
<path d="M12280 17685 c-241 -50 -443 -204 -549 -420 -51 -103 -70 -177 -78
-297 -24 -386 224 -719 602 -809 82 -19 114 -19 1127 -17 l1043 3 70 23 c267
90 456 280 528 532 32 113 41 210 27 312 -44 320 -259 569 -575 664 -56 17
-131 18 -1095 20 -834 2 -1048 0 -1100 -11z"/>
<path d="M16540 17685 c-281 -57 -497 -250 -591 -526 -31 -88 -33 -103 -33
-234 -1 -162 12 -224 75 -352 74 -150 202 -278 353 -352 158 -78 120 -74 891
-81 682 -6 691 -6 749 -28 206 -77 336 -260 336 -472 0 -215 -136 -403 -343
-474 l-62 -21 -3245 -5 c-2616 -4 -3253 -8 -3285 -18 -153 -50 -258 -110 -351
-201 -158 -155 -234 -338 -234 -562 0 -353 220 -642 572 -751 l73 -23 2465 -5
2465 -5 55 -22 c203 -83 330 -264 330 -468 0 -224 -166 -435 -380 -484 -28 -7
-252 -11 -590 -11 -300 0 -577 -5 -615 -10 -318 -41 -578 -270 -662 -580 -24
-89 -24 -300 0 -390 59 -225 241 -435 454 -524 150 -63 75 -59 1373 -65 l1185
-6 55 -23 c216 -90 348 -318 311 -539 -31 -181 -154 -329 -329 -396 l-57 -22
-2180 -5 c-2442 -6 -2211 2 -2380 -79 -164 -78 -281 -194 -361 -356 -55 -112
-74 -183 -81 -305 -22 -375 231 -712 601 -800 79 -19 145 -20 3202 -20 2702 0
3133 2 3205 15 365 64 675 301 835 640 25 52 57 138 72 192 l27 98 3 3635 c2
3248 1 3644 -13 3718 -45 240 -157 446 -335 616 -177 169 -389 271 -635 306
-44 6 -589 9 -1465 9 -1118 -1 -1408 -4 -1460 -14z"/>
<path d="M11750 12579 c-307 -46 -562 -274 -646 -580 -25 -89 -25 -299 0 -388
60 -220 208 -401 407 -500 171 -86 168 -86 844 -86 671 0 675 0 840 80 163 79
280 196 360 360 59 123 78 205 78 340 0 312 -171 578 -456 710 -149 69 -139
68 -782 71 -331 1 -608 -2 -645 -7z"/>
<path d="M24560 6514 c-14 -2 -59 -9 -100 -15 -116 -16 -289 -64 -397 -109
-555 -231 -903 -755 -974 -1464 -15 -151 -6 -573 15 -711 93 -615 353 -1027
786 -1245 247 -124 475 -171 825 -171 345 0 660 53 920 154 l60 23 3 322 c1
177 -1 322 -6 322 -5 0 -48 -14 -98 -31 -221 -75 -497 -134 -702 -148 -306
-21 -533 41 -698 192 -221 202 -323 520 -324 1009 -1 666 233 1093 665 1213
92 25 318 31 435 11 114 -20 290 -78 460 -153 69 -30 134 -57 145 -59 18 -5
33 27 137 293 65 164 119 304 120 311 6 26 -291 142 -492 192 -202 51 -289 62
-530 65 -124 2 -236 2 -250 -1z"/>
<path d="M5410 4655 l0 -1815 1120 0 1120 0 0 320 0 320 -735 0 -735 0 0 1495
0 1495 -385 0 -385 0 0 -1815z"/>
<path d="M7990 6252 l0 -219 218 -100 217 -100 3 -1175 2 -1174 -217 -100
-218 -100 -3 -222 -2 -222 822 2 823 3 0 219 0 219 -217 100 -218 100 0 1176
1 1176 219 99 220 100 0 218 0 218 -825 0 -825 0 0 -218z"/>
<path d="M9879 6243 c43 -126 320 -942 616 -1815 l539 -1588 417 0 c388 0 417
1 424 18 13 34 1225 3602 1225 3607 0 3 -174 4 -387 3 l-388 -3 -351 -1103
c-345 -1087 -439 -1410 -498 -1715 l-22 -119 -23 109 c-36 170 -126 526 -166
658 -34 113 -622 1977 -666 2113 l-21 62 -388 0 -389 0 78 -227z"/>
<path d="M13560 4655 l0 -1815 385 0 385 0 0 785 0 785 720 0 720 0 0 -785 0
-785 380 0 380 0 0 1815 0 1815 -380 0 -380 0 0 -710 0 -710 -720 0 -720 0 0
710 0 710 -385 0 -385 0 0 -1815z"/>
<path d="M17090 6150 l0 -320 495 0 495 0 0 -1495 0 -1495 383 2 382 3 3 1493
2 1492 490 0 490 0 0 320 0 320 -1370 0 -1370 0 0 -320z"/>
<path d="M20390 4655 l0 -1815 1045 0 1045 0 0 320 0 320 -660 0 -660 0 0 465
0 465 613 2 612 3 3 313 2 312 -615 0 -615 0 0 400 0 400 660 0 660 0 0 315 0
315 -1045 0 -1045 0 0 -1815z"/>
<path d="M5877 2090 c-90 -23 -158 -75 -193 -146 -23 -48 -26 -63 -22 -127 10
-152 68 -209 320 -311 100 -41 157 -81 174 -121 33 -79 4 -165 -69 -206 -75
-42 -263 -36 -389 11 l-48 18 0 -62 c0 -56 2 -64 24 -74 52 -24 148 -34 273
-30 111 3 135 7 184 30 102 47 157 122 166 229 8 78 -11 139 -58 193 -48 55
-94 82 -231 136 -175 69 -226 120 -215 218 6 54 31 89 81 115 66 35 234 21
346 -27 12 -5 20 6 34 49 11 30 16 58 13 61 -34 34 -307 65 -390 44z"/>
<path d="M8340 2082 c-157 -41 -261 -151 -307 -325 -23 -85 -23 -289 0 -374
39 -145 120 -248 240 -304 72 -34 73 -34 218 -34 l145 0 76 38 c177 87 269
277 254 527 -15 259 -129 422 -333 475 -75 20 -212 18 -293 -3z m301 -124 c67
-28 131 -101 159 -181 27 -79 37 -237 21 -333 -33 -188 -131 -282 -307 -292
-121 -7 -182 14 -254 86 -71 72 -99 144 -107 283 -19 311 117 481 371 463 37
-2 90 -14 117 -26z"/>
<path d="M19799 2082 c-116 -31 -212 -109 -264 -217 -42 -87 -56 -160 -56
-295 0 -83 5 -145 16 -185 61 -230 213 -345 453 -345 165 1 258 36 346 131 91
98 136 232 136 401 -1 269 -124 458 -335 513 -77 20 -213 18 -296 -3z m306
-126 c135 -62 192 -194 183 -426 -8 -184 -59 -287 -173 -345 -54 -28 -66 -30
-164 -30 -96 0 -111 3 -157 27 -101 53 -158 149 -176 298 -19 157 14 320 83
403 34 42 109 84 173 97 64 14 174 3 231 -24z"/>
<path d="M25170 2085 c-87 -25 -146 -70 -183 -140 -30 -57 -29 -162 2 -233 38
-84 99 -126 323 -217 38 -15 87 -44 110 -64 40 -36 42 -41 46 -102 3 -55 0
-69 -20 -98 -35 -51 -87 -74 -183 -79 -85 -4 -216 16 -282 43 l-33 14 0 -64 0
-63 53 -19 c42 -14 83 -18 212 -18 154 0 162 1 220 28 76 35 111 69 141 132
17 36 24 68 24 114 0 92 -17 139 -70 191 -47 45 -68 57 -238 129 -109 46 -154
75 -177 113 -21 36 -22 116 -1 156 39 76 195 98 348 49 l77 -25 20 52 c10 28
17 54 15 58 -3 4 -35 17 -72 29 -90 28 -256 35 -332 14z"/>
<path d="M10790 1570 l0 -520 290 0 290 0 0 60 0 60 -225 0 -225 0 0 460 0
460 -65 0 -65 0 0 -520z"/>
<path d="M12982 1693 l3 -398 33 -67 c37 -75 89 -124 168 -160 68 -30 245 -38
330 -14 77 22 156 77 194 134 58 87 60 109 60 524 l0 378 -59 0 -59 0 -5 -372
c-3 -261 -8 -385 -16 -413 -19 -60 -96 -129 -161 -145 -72 -17 -184 -9 -236
18 -44 22 -88 68 -107 111 -8 18 -14 152 -17 411 l-5 385 -63 3 -63 3 3 -398z"/>
<path d="M15450 2030 l0 -60 160 0 160 0 0 -460 0 -460 65 0 65 0 0 460 0 460
160 0 160 0 0 60 0 60 -385 0 -385 0 0 -60z"/>
<path d="M17547 2083 c-4 -3 -7 -21 -7 -39 0 -26 5 -33 28 -38 15 -4 44 -12
65 -17 l37 -10 0 -414 0 -413 -62 -14 c-63 -13 -63 -13 -66 -51 l-3 -37 191 0
191 0 -3 37 c-3 36 -4 38 -61 51 l-57 14 2 416 3 416 30 7 c17 4 42 10 58 13
24 6 27 11 27 46 l0 40 -183 0 c-101 0 -187 -3 -190 -7z"/>
<path d="M22370 1570 l0 -520 61 0 61 0 -4 429 -3 430 60 -94 c33 -52 157
-245 275 -429 l215 -335 78 0 77 -1 0 520 0 520 -61 0 -61 0 4 -430 c2 -237 2
-430 2 -430 -1 0 -126 193 -279 430 l-278 430 -73 0 -74 0 0 -520z"/>
</g>
</svg>
