<?xml version="1.0" standalone="no"?>
<!DOCTYPE svg PUBLIC "-//W3C//DTD SVG 20010904//EN"
 "http://www.w3.org/TR/2001/REC-SVG-20010904/DTD/svg10.dtd">
<svg version="1.0" xmlns="http://www.w3.org/2000/svg"
 width="1200.000000pt" height="867.000000pt" viewBox="0 0 1200.000000 867.000000"
 preserveAspectRatio="xMidYMid meet">

<g transform="translate(0.000000,867.000000) scale(0.100000,-0.100000)"
fill="#000000" stroke="none">
<path d="M3335 8010 c-71 -14 -169 -55 -227 -93 -124 -83 -231 -232 -263 -368
-19 -82 -19 -228 0 -304 43 -171 169 -326 325 -404 147 -72 146 -72 1062 -69
744 3 807 5 858 22 216 71 383 242 436 447 22 84 22 226 1 307 -48 180 -169
328 -334 408 -133 64 -122 64 -1013 63 -443 -1 -823 -5 -845 -9z"/>
<path d="M6705 8001 c-118 -29 -200 -76 -291 -166 -135 -134 -190 -275 -182
-465 10 -224 123 -409 316 -517 137 -77 131 -76 752 -83 619 -6 597 -4 695
-78 109 -82 160 -197 153 -340 -4 -73 -10 -97 -37 -150 -42 -83 -106 -146
-189 -185 l-67 -32 -2600 -5 c-2881 -6 -2625 1 -2771 -71 -49 -24 -93 -57
-150 -114 -129 -129 -184 -258 -184 -433 0 -119 13 -179 62 -281 71 -148 214
-269 388 -328 52 -17 145 -18 2030 -23 2211 -6 2009 2 2115 -78 105 -80 158
-185 158 -317 0 -175 -108 -324 -272 -375 -59 -19 -92 -20 -512 -20 -505 0
-549 -4 -677 -67 -85 -42 -193 -138 -248 -220 -21 -31 -51 -96 -67 -143 -26
-73 -30 -100 -30 -190 -1 -72 5 -124 17 -165 52 -174 168 -317 319 -394 135
-68 73 -65 1127 -71 l955 -5 68 -32 c82 -39 154 -110 194 -190 26 -53 28 -67
28 -168 0 -101 -2 -115 -29 -170 -39 -79 -110 -149 -194 -188 l-67 -32 -1745
-5 c-1630 -5 -1749 -6 -1804 -23 -215 -64 -388 -241 -441 -452 -18 -69 -20
-211 -4 -287 6 -29 29 -91 51 -138 32 -67 57 -101 117 -161 84 -84 151 -126
256 -161 l70 -23 2535 0 2535 0 85 23 c280 74 510 274 615 535 70 172 65 -74
65 3130 l0 2894 -24 96 c-88 348 -371 611 -721 672 -75 13 -248 15 -1209 14
-1028 0 -1127 -2 -1191 -18z"/>
<path d="M2891 3929 c-138 -28 -246 -85 -341 -182 -133 -135 -199 -328 -172
-506 22 -152 75 -261 178 -365 73 -72 145 -117 246 -154 l73 -27 480 -3 c547
-4 571 -1 715 69 161 79 284 235 326 414 23 101 15 246 -19 345 -51 143 -163
274 -296 344 -138 71 -123 70 -661 72 -267 1 -505 -2 -529 -7z"/>
</g>
</svg>
